<?xml version="1.0" encoding="UTF-8" standalone="no"?>
<!DOCTYPE svg PUBLIC "-//W3C//DTD SVG 1.1//EN" "http://www.w3.org/Graphics/SVG/1.1/DTD/svg11.dtd">
<svg width="100%" height="100%" viewBox="0 0 900 475" version="1.1" xmlns="http://www.w3.org/2000/svg" xmlns:xlink="http://www.w3.org/1999/xlink" xml:space="preserve" xmlns:serif="http://www.serif.com/" style="fill-rule:evenodd;clip-rule:evenodd;stroke-linecap:round;stroke-miterlimit:1.5;">
    <g id="Frame" transform="matrix(1,0,0,1,0,-80.5)">
        <path d="M890.909,544.05L13.502,544.05L13.502,212.142L208.456,212.142L208.456,94.714L890.909,94.714L890.909,544.05Z" style="fill:white;stroke:white;stroke-width:20px;"/>
    </g>
    <g id="LightIcons">
        <g id="LightOff" transform="matrix(0.123381,0,0,0.111635,862.986,60.0212)">
            <g transform="matrix(1,0,0,1,-300,-300)">
                <g id="Off" transform="matrix(1,0,0,1,67.347,0.816345)">
                    <g>
                        <g transform="matrix(-1,-1.22465e-16,1.22465e-16,-1,443.082,496.992)">
                            <path d="M221.541,-18.008C221.541,-18.008 296.157,131.225 357.475,253.861C374.411,287.732 372.601,327.957 352.692,360.171C332.783,392.384 297.614,411.992 259.745,411.992L190.996,411.992C151.486,411.992 114.794,391.535 94.022,357.926C73.251,324.317 71.362,282.35 89.032,247.011C149.667,125.741 221.541,-18.008 221.541,-18.008Z" style="fill:rgb(147,147,147);"/>
                        </g>
                        <g transform="matrix(1,0,0,1,-34,-50)">
                            <circle cx="255.541" cy="246.992" r="146" style="fill:rgb(147,147,147);"/>
                        </g>
                    </g>
                </g>
                <g id="off">
                    <g transform="matrix(0.108285,0.835915,-0.579443,0.0750612,566.76,-8.58311)">
                        <rect x="187.843" y="571.765" width="281.569" height="15.686" style="fill:rgb(101,101,101);"/>
                    </g>
                    <g transform="matrix(-0.108285,0.835915,0.579443,0.0750612,13.2312,-8.58311)">
                        <rect x="187.843" y="571.765" width="281.569" height="15.686" style="fill:rgb(101,101,101);"/>
                    </g>
                </g>
                <g transform="matrix(1,0,0,1,67.347,0.816345)">
                    <path d="M276.541,439.492C276.541,424.315 264.219,411.992 249.041,411.992L194.041,411.992C178.863,411.992 166.541,424.315 166.541,439.492L166.541,494.492C166.541,509.67 178.863,521.992 194.041,521.992L249.041,521.992C264.219,521.992 276.541,509.67 276.541,494.492L276.541,439.492Z" style="fill:rgb(89,89,89);"/>
                </g>
            </g>
        </g>
        <g id="LightOff1" serif:id="LightOff" transform="matrix(0.123381,0,0,0.111635,862.986,158.238)">
            <g transform="matrix(1,0,0,1,-300,-300)">
                <g id="Off1" serif:id="Off" transform="matrix(1,0,0,1,67.347,0.816345)">
                    <g>
                        <g transform="matrix(-1,-1.22465e-16,1.22465e-16,-1,443.082,496.992)">
                            <path d="M221.541,-18.008C221.541,-18.008 296.157,131.225 357.475,253.861C374.411,287.732 372.601,327.957 352.692,360.171C332.783,392.384 297.614,411.992 259.745,411.992L190.996,411.992C151.486,411.992 114.794,391.535 94.022,357.926C73.251,324.317 71.362,282.35 89.032,247.011C149.667,125.741 221.541,-18.008 221.541,-18.008Z" style="fill:rgb(147,147,147);"/>
                        </g>
                        <g transform="matrix(1,0,0,1,-34,-50)">
                            <circle cx="255.541" cy="246.992" r="146" style="fill:rgb(147,147,147);"/>
                        </g>
                    </g>
                </g>
                <g id="off1" serif:id="off">
                    <g transform="matrix(0.108285,0.835915,-0.579443,0.0750612,566.76,-8.58311)">
                        <rect x="187.843" y="571.765" width="281.569" height="15.686" style="fill:rgb(101,101,101);"/>
                    </g>
                    <g transform="matrix(-0.108285,0.835915,0.579443,0.0750612,13.2312,-8.58311)">
                        <rect x="187.843" y="571.765" width="281.569" height="15.686" style="fill:rgb(101,101,101);"/>
                    </g>
                </g>
                <g transform="matrix(1,0,0,1,67.347,0.816345)">
                    <path d="M276.541,439.492C276.541,424.315 264.219,411.992 249.041,411.992L194.041,411.992C178.863,411.992 166.541,424.315 166.541,439.492L166.541,494.492C166.541,509.67 178.863,521.992 194.041,521.992L249.041,521.992C264.219,521.992 276.541,509.67 276.541,494.492L276.541,439.492Z" style="fill:rgb(89,89,89);"/>
                </g>
            </g>
        </g>
        <g id="LightOff2" serif:id="LightOff" transform="matrix(0.123381,0,0,0.111635,596.519,61.7459)">
            <g transform="matrix(1,0,0,1,-300,-300)">
                <g id="Off2" serif:id="Off" transform="matrix(1,0,0,1,67.347,0.816345)">
                    <g>
                        <g transform="matrix(-1,-1.22465e-16,1.22465e-16,-1,443.082,496.992)">
                            <path d="M221.541,-18.008C221.541,-18.008 296.157,131.225 357.475,253.861C374.411,287.732 372.601,327.957 352.692,360.171C332.783,392.384 297.614,411.992 259.745,411.992L190.996,411.992C151.486,411.992 114.794,391.535 94.022,357.926C73.251,324.317 71.362,282.35 89.032,247.011C149.667,125.741 221.541,-18.008 221.541,-18.008Z" style="fill:rgb(147,147,147);"/>
                        </g>
                        <g transform="matrix(1,0,0,1,-34,-50)">
                            <circle cx="255.541" cy="246.992" r="146" style="fill:rgb(147,147,147);"/>
                        </g>
                    </g>
                </g>
                <g id="off2" serif:id="off">
                    <g transform="matrix(0.108285,0.835915,-0.579443,0.0750612,566.76,-8.58311)">
                        <rect x="187.843" y="571.765" width="281.569" height="15.686" style="fill:rgb(101,101,101);"/>
                    </g>
                    <g transform="matrix(-0.108285,0.835915,0.579443,0.0750612,13.2312,-8.58311)">
                        <rect x="187.843" y="571.765" width="281.569" height="15.686" style="fill:rgb(101,101,101);"/>
                    </g>
                </g>
                <g transform="matrix(1,0,0,1,67.347,0.816345)">
                    <path d="M276.541,439.492C276.541,424.315 264.219,411.992 249.041,411.992L194.041,411.992C178.863,411.992 166.541,424.315 166.541,439.492L166.541,494.492C166.541,509.67 178.863,521.992 194.041,521.992L249.041,521.992C264.219,521.992 276.541,509.67 276.541,494.492L276.541,439.492Z" style="fill:rgb(89,89,89);"/>
                </g>
            </g>
        </g>
        <g id="LightOff3" serif:id="LightOff" transform="matrix(0.123381,0,0,0.111635,596.519,161.516)">
            <g transform="matrix(1,0,0,1,-300,-300)">
                <g id="Off3" serif:id="Off" transform="matrix(1,0,0,1,67.347,0.816345)">
                    <g>
                        <g transform="matrix(-1,-1.22465e-16,1.22465e-16,-1,443.082,496.992)">
                            <path d="M221.541,-18.008C221.541,-18.008 296.157,131.225 357.475,253.861C374.411,287.732 372.601,327.957 352.692,360.171C332.783,392.384 297.614,411.992 259.745,411.992L190.996,411.992C151.486,411.992 114.794,391.535 94.022,357.926C73.251,324.317 71.362,282.35 89.032,247.011C149.667,125.741 221.541,-18.008 221.541,-18.008Z" style="fill:rgb(147,147,147);"/>
                        </g>
                        <g transform="matrix(1,0,0,1,-34,-50)">
                            <circle cx="255.541" cy="246.992" r="146" style="fill:rgb(147,147,147);"/>
                        </g>
                    </g>
                </g>
                <g id="off3" serif:id="off">
                    <g transform="matrix(0.108285,0.835915,-0.579443,0.0750612,566.76,-8.58311)">
                        <rect x="187.843" y="571.765" width="281.569" height="15.686" style="fill:rgb(101,101,101);"/>
                    </g>
                    <g transform="matrix(-0.108285,0.835915,0.579443,0.0750612,13.2312,-8.58311)">
                        <rect x="187.843" y="571.765" width="281.569" height="15.686" style="fill:rgb(101,101,101);"/>
                    </g>
                </g>
                <g transform="matrix(1,0,0,1,67.347,0.816345)">
                    <path d="M276.541,439.492C276.541,424.315 264.219,411.992 249.041,411.992L194.041,411.992C178.863,411.992 166.541,424.315 166.541,439.492L166.541,494.492C166.541,509.67 178.863,521.992 194.041,521.992L249.041,521.992C264.219,521.992 276.541,509.67 276.541,494.492L276.541,439.492Z" style="fill:rgb(89,89,89);"/>
                </g>
            </g>
        </g>
        <g id="LightOff4" serif:id="LightOff" transform="matrix(0.123381,0,0,0.111635,331.737,295.864)">
            <g transform="matrix(1,0,0,1,-300,-300)">
                <g id="Off4" serif:id="Off" transform="matrix(1,0,0,1,67.347,0.816345)">
                    <g>
                        <g transform="matrix(-1,-1.22465e-16,1.22465e-16,-1,443.082,496.992)">
                            <path d="M221.541,-18.008C221.541,-18.008 296.157,131.225 357.475,253.861C374.411,287.732 372.601,327.957 352.692,360.171C332.783,392.384 297.614,411.992 259.745,411.992L190.996,411.992C151.486,411.992 114.794,391.535 94.022,357.926C73.251,324.317 71.362,282.35 89.032,247.011C149.667,125.741 221.541,-18.008 221.541,-18.008Z" style="fill:rgb(147,147,147);"/>
                        </g>
                        <g transform="matrix(1,0,0,1,-34,-50)">
                            <circle cx="255.541" cy="246.992" r="146" style="fill:rgb(147,147,147);"/>
                        </g>
                    </g>
                </g>
                <g id="off4" serif:id="off">
                    <g transform="matrix(0.108285,0.835915,-0.579443,0.0750612,566.76,-8.58311)">
                        <rect x="187.843" y="571.765" width="281.569" height="15.686" style="fill:rgb(101,101,101);"/>
                    </g>
                    <g transform="matrix(-0.108285,0.835915,0.579443,0.0750612,13.2312,-8.58311)">
                        <rect x="187.843" y="571.765" width="281.569" height="15.686" style="fill:rgb(101,101,101);"/>
                    </g>
                </g>
                <g transform="matrix(1,0,0,1,67.347,0.816345)">
                    <path d="M276.541,439.492C276.541,424.315 264.219,411.992 249.041,411.992L194.041,411.992C178.863,411.992 166.541,424.315 166.541,439.492L166.541,494.492C166.541,509.67 178.863,521.992 194.041,521.992L249.041,521.992C264.219,521.992 276.541,509.67 276.541,494.492L276.541,439.492Z" style="fill:rgb(89,89,89);"/>
                </g>
            </g>
        </g>
        <g id="LightOff5" serif:id="LightOff" transform="matrix(0.123381,0,0,0.111635,331.737,424.316)">
            <g transform="matrix(1,0,0,1,-300,-300)">
                <g id="Off5" serif:id="Off" transform="matrix(1,0,0,1,67.347,0.816345)">
                    <g>
                        <g transform="matrix(-1,-1.22465e-16,1.22465e-16,-1,443.082,496.992)">
                            <path d="M221.541,-18.008C221.541,-18.008 296.157,131.225 357.475,253.861C374.411,287.732 372.601,327.957 352.692,360.171C332.783,392.384 297.614,411.992 259.745,411.992L190.996,411.992C151.486,411.992 114.794,391.535 94.022,357.926C73.251,324.317 71.362,282.35 89.032,247.011C149.667,125.741 221.541,-18.008 221.541,-18.008Z" style="fill:rgb(147,147,147);"/>
                        </g>
                        <g transform="matrix(1,0,0,1,-34,-50)">
                            <circle cx="255.541" cy="246.992" r="146" style="fill:rgb(147,147,147);"/>
                        </g>
                    </g>
                </g>
                <g id="off5" serif:id="off">
                    <g transform="matrix(0.108285,0.835915,-0.579443,0.0750612,566.76,-8.58311)">
                        <rect x="187.843" y="571.765" width="281.569" height="15.686" style="fill:rgb(101,101,101);"/>
                    </g>
                    <g transform="matrix(-0.108285,0.835915,0.579443,0.0750612,13.2312,-8.58311)">
                        <rect x="187.843" y="571.765" width="281.569" height="15.686" style="fill:rgb(101,101,101);"/>
                    </g>
                </g>
                <g transform="matrix(1,0,0,1,67.347,0.816345)">
                    <path d="M276.541,439.492C276.541,424.315 264.219,411.992 249.041,411.992L194.041,411.992C178.863,411.992 166.541,424.315 166.541,439.492L166.541,494.492C166.541,509.67 178.863,521.992 194.041,521.992L249.041,521.992C264.219,521.992 276.541,509.67 276.541,494.492L276.541,439.492Z" style="fill:rgb(89,89,89);"/>
                </g>
            </g>
        </g>
        <g id="LightOff6" serif:id="LightOff" transform="matrix(0.123381,0,0,0.111635,428.548,352.18)">
            <g transform="matrix(1,0,0,1,-300,-300)">
                <g id="Off6" serif:id="Off" transform="matrix(1,0,0,1,67.347,0.816345)">
                    <g>
                        <g transform="matrix(-1,-1.22465e-16,1.22465e-16,-1,443.082,496.992)">
                            <path d="M221.541,-18.008C221.541,-18.008 296.157,131.225 357.475,253.861C374.411,287.732 372.601,327.957 352.692,360.171C332.783,392.384 297.614,411.992 259.745,411.992L190.996,411.992C151.486,411.992 114.794,391.535 94.022,357.926C73.251,324.317 71.362,282.35 89.032,247.011C149.667,125.741 221.541,-18.008 221.541,-18.008Z" style="fill:rgb(147,147,147);"/>
                        </g>
                        <g transform="matrix(1,0,0,1,-34,-50)">
                            <circle cx="255.541" cy="246.992" r="146" style="fill:rgb(147,147,147);"/>
                        </g>
                    </g>
                </g>
                <g id="off6" serif:id="off">
                    <g transform="matrix(0.108285,0.835915,-0.579443,0.0750612,566.76,-8.58311)">
                        <rect x="187.843" y="571.765" width="281.569" height="15.686" style="fill:rgb(101,101,101);"/>
                    </g>
                    <g transform="matrix(-0.108285,0.835915,0.579443,0.0750612,13.2312,-8.58311)">
                        <rect x="187.843" y="571.765" width="281.569" height="15.686" style="fill:rgb(101,101,101);"/>
                    </g>
                </g>
                <g transform="matrix(1,0,0,1,67.347,0.816345)">
                    <path d="M276.541,439.492C276.541,424.315 264.219,411.992 249.041,411.992L194.041,411.992C178.863,411.992 166.541,424.315 166.541,439.492L166.541,494.492C166.541,509.67 178.863,521.992 194.041,521.992L249.041,521.992C264.219,521.992 276.541,509.67 276.541,494.492L276.541,439.492Z" style="fill:rgb(89,89,89);"/>
                </g>
            </g>
        </g>
        <g id="LightOff7" serif:id="LightOff" transform="matrix(0.123381,0,0,0.111635,765.211,114.053)">
            <g transform="matrix(1,0,0,1,-300,-300)">
                <g id="Off7" serif:id="Off" transform="matrix(1,0,0,1,67.347,0.816345)">
                    <g>
                        <g transform="matrix(-1,-1.22465e-16,1.22465e-16,-1,443.082,496.992)">
                            <path d="M221.541,-18.008C221.541,-18.008 296.157,131.225 357.475,253.861C374.411,287.732 372.601,327.957 352.692,360.171C332.783,392.384 297.614,411.992 259.745,411.992L190.996,411.992C151.486,411.992 114.794,391.535 94.022,357.926C73.251,324.317 71.362,282.35 89.032,247.011C149.667,125.741 221.541,-18.008 221.541,-18.008Z" style="fill:rgb(147,147,147);"/>
                        </g>
                        <g transform="matrix(1,0,0,1,-34,-50)">
                            <circle cx="255.541" cy="246.992" r="146" style="fill:rgb(147,147,147);"/>
                        </g>
                    </g>
                </g>
                <g id="off7" serif:id="off">
                    <g transform="matrix(0.108285,0.835915,-0.579443,0.0750612,566.76,-8.58311)">
                        <rect x="187.843" y="571.765" width="281.569" height="15.686" style="fill:rgb(101,101,101);"/>
                    </g>
                    <g transform="matrix(-0.108285,0.835915,0.579443,0.0750612,13.2312,-8.58311)">
                        <rect x="187.843" y="571.765" width="281.569" height="15.686" style="fill:rgb(101,101,101);"/>
                    </g>
                </g>
                <g transform="matrix(1,0,0,1,67.347,0.816345)">
                    <path d="M276.541,439.492C276.541,424.315 264.219,411.992 249.041,411.992L194.041,411.992C178.863,411.992 166.541,424.315 166.541,439.492L166.541,494.492C166.541,509.67 178.863,521.992 194.041,521.992L249.041,521.992C264.219,521.992 276.541,509.67 276.541,494.492L276.541,439.492Z" style="fill:rgb(89,89,89);"/>
                </g>
            </g>
        </g>
        <g id="LightOff8" serif:id="LightOff" transform="matrix(0.123381,0,0,0.111635,639.051,380.087)">
            <g transform="matrix(1,0,0,1,-300,-300)">
                <g id="Off8" serif:id="Off" transform="matrix(1,0,0,1,67.347,0.816345)">
                    <g>
                        <g transform="matrix(-1,-1.22465e-16,1.22465e-16,-1,443.082,496.992)">
                            <path d="M221.541,-18.008C221.541,-18.008 296.157,131.225 357.475,253.861C374.411,287.732 372.601,327.957 352.692,360.171C332.783,392.384 297.614,411.992 259.745,411.992L190.996,411.992C151.486,411.992 114.794,391.535 94.022,357.926C73.251,324.317 71.362,282.35 89.032,247.011C149.667,125.741 221.541,-18.008 221.541,-18.008Z" style="fill:rgb(147,147,147);"/>
                        </g>
                        <g transform="matrix(1,0,0,1,-34,-50)">
                            <circle cx="255.541" cy="246.992" r="146" style="fill:rgb(147,147,147);"/>
                        </g>
                    </g>
                </g>
                <g id="off8" serif:id="off">
                    <g transform="matrix(0.108285,0.835915,-0.579443,0.0750612,566.76,-8.58311)">
                        <rect x="187.843" y="571.765" width="281.569" height="15.686" style="fill:rgb(101,101,101);"/>
                    </g>
                    <g transform="matrix(-0.108285,0.835915,0.579443,0.0750612,13.2312,-8.58311)">
                        <rect x="187.843" y="571.765" width="281.569" height="15.686" style="fill:rgb(101,101,101);"/>
                    </g>
                </g>
                <g transform="matrix(1,0,0,1,67.347,0.816345)">
                    <path d="M276.541,439.492C276.541,424.315 264.219,411.992 249.041,411.992L194.041,411.992C178.863,411.992 166.541,424.315 166.541,439.492L166.541,494.492C166.541,509.67 178.863,521.992 194.041,521.992L249.041,521.992C264.219,521.992 276.541,509.67 276.541,494.492L276.541,439.492Z" style="fill:rgb(89,89,89);"/>
                </g>
            </g>
        </g>
        <g id="LightOff9" serif:id="LightOff" transform="matrix(0.123381,0,0,0.111635,807.552,380.087)">
            <g transform="matrix(1,0,0,1,-300,-300)">
                <g id="Off9" serif:id="Off" transform="matrix(1,0,0,1,67.347,0.816345)">
                    <g>
                        <g transform="matrix(-1,-1.22465e-16,1.22465e-16,-1,443.082,496.992)">
                            <path d="M221.541,-18.008C221.541,-18.008 296.157,131.225 357.475,253.861C374.411,287.732 372.601,327.957 352.692,360.171C332.783,392.384 297.614,411.992 259.745,411.992L190.996,411.992C151.486,411.992 114.794,391.535 94.022,357.926C73.251,324.317 71.362,282.35 89.032,247.011C149.667,125.741 221.541,-18.008 221.541,-18.008Z" style="fill:rgb(147,147,147);"/>
                        </g>
                        <g transform="matrix(1,0,0,1,-34,-50)">
                            <circle cx="255.541" cy="246.992" r="146" style="fill:rgb(147,147,147);"/>
                        </g>
                    </g>
                </g>
                <g id="off9" serif:id="off">
                    <g transform="matrix(0.108285,0.835915,-0.579443,0.0750612,566.76,-8.58311)">
                        <rect x="187.843" y="571.765" width="281.569" height="15.686" style="fill:rgb(101,101,101);"/>
                    </g>
                    <g transform="matrix(-0.108285,0.835915,0.579443,0.0750612,13.2312,-8.58311)">
                        <rect x="187.843" y="571.765" width="281.569" height="15.686" style="fill:rgb(101,101,101);"/>
                    </g>
                </g>
                <g transform="matrix(1,0,0,1,67.347,0.816345)">
                    <path d="M276.541,439.492C276.541,424.315 264.219,411.992 249.041,411.992L194.041,411.992C178.863,411.992 166.541,424.315 166.541,439.492L166.541,494.492C166.541,509.67 178.863,521.992 194.041,521.992L249.041,521.992C264.219,521.992 276.541,509.67 276.541,494.492L276.541,439.492Z" style="fill:rgb(89,89,89);"/>
                </g>
            </g>
        </g>
        <g id="LightOff10" serif:id="LightOff" transform="matrix(0.123381,0,0,0.111635,584.049,422.343)">
            <g transform="matrix(1,0,0,1,-300,-300)">
                <g id="Off10" serif:id="Off" transform="matrix(1,0,0,1,67.347,0.816345)">
                    <g>
                        <g transform="matrix(-1,-1.22465e-16,1.22465e-16,-1,443.082,496.992)">
                            <path d="M221.541,-18.008C221.541,-18.008 296.157,131.225 357.475,253.861C374.411,287.732 372.601,327.957 352.692,360.171C332.783,392.384 297.614,411.992 259.745,411.992L190.996,411.992C151.486,411.992 114.794,391.535 94.022,357.926C73.251,324.317 71.362,282.35 89.032,247.011C149.667,125.741 221.541,-18.008 221.541,-18.008Z" style="fill:rgb(147,147,147);"/>
                        </g>
                        <g transform="matrix(1,0,0,1,-34,-50)">
                            <circle cx="255.541" cy="246.992" r="146" style="fill:rgb(147,147,147);"/>
                        </g>
                    </g>
                </g>
                <g id="off10" serif:id="off">
                    <g transform="matrix(0.108285,0.835915,-0.579443,0.0750612,566.76,-8.58311)">
                        <rect x="187.843" y="571.765" width="281.569" height="15.686" style="fill:rgb(101,101,101);"/>
                    </g>
                    <g transform="matrix(-0.108285,0.835915,0.579443,0.0750612,13.2312,-8.58311)">
                        <rect x="187.843" y="571.765" width="281.569" height="15.686" style="fill:rgb(101,101,101);"/>
                    </g>
                </g>
                <g transform="matrix(1,0,0,1,67.347,0.816345)">
                    <path d="M276.541,439.492C276.541,424.315 264.219,411.992 249.041,411.992L194.041,411.992C178.863,411.992 166.541,424.315 166.541,439.492L166.541,494.492C166.541,509.67 178.863,521.992 194.041,521.992L249.041,521.992C264.219,521.992 276.541,509.67 276.541,494.492L276.541,439.492Z" style="fill:rgb(89,89,89);"/>
                </g>
            </g>
        </g>
        <g id="LightOff11" serif:id="LightOff" transform="matrix(0.123381,0,0,0.111635,753.268,423.463)">
            <g transform="matrix(1,0,0,1,-300,-300)">
                <g id="Off11" serif:id="Off" transform="matrix(1,0,0,1,67.347,0.816345)">
                    <g>
                        <g transform="matrix(-1,-1.22465e-16,1.22465e-16,-1,443.082,496.992)">
                            <path d="M221.541,-18.008C221.541,-18.008 296.157,131.225 357.475,253.861C374.411,287.732 372.601,327.957 352.692,360.171C332.783,392.384 297.614,411.992 259.745,411.992L190.996,411.992C151.486,411.992 114.794,391.535 94.022,357.926C73.251,324.317 71.362,282.35 89.032,247.011C149.667,125.741 221.541,-18.008 221.541,-18.008Z" style="fill:rgb(147,147,147);"/>
                        </g>
                        <g transform="matrix(1,0,0,1,-34,-50)">
                            <circle cx="255.541" cy="246.992" r="146" style="fill:rgb(147,147,147);"/>
                        </g>
                    </g>
                </g>
                <g id="off11" serif:id="off">
                    <g transform="matrix(0.108285,0.835915,-0.579443,0.0750612,566.76,-8.58311)">
                        <rect x="187.843" y="571.765" width="281.569" height="15.686" style="fill:rgb(101,101,101);"/>
                    </g>
                    <g transform="matrix(-0.108285,0.835915,0.579443,0.0750612,13.2312,-8.58311)">
                        <rect x="187.843" y="571.765" width="281.569" height="15.686" style="fill:rgb(101,101,101);"/>
                    </g>
                </g>
                <g transform="matrix(1,0,0,1,67.347,0.816345)">
                    <path d="M276.541,439.492C276.541,424.315 264.219,411.992 249.041,411.992L194.041,411.992C178.863,411.992 166.541,424.315 166.541,439.492L166.541,494.492C166.541,509.67 178.863,521.992 194.041,521.992L249.041,521.992C264.219,521.992 276.541,509.67 276.541,494.492L276.541,439.492Z" style="fill:rgb(89,89,89);"/>
                </g>
            </g>
        </g>
        <g id="LightOff12" serif:id="LightOff" transform="matrix(0.123381,0,0,0.111635,427.242,134)">
            <g transform="matrix(1,0,0,1,-300,-300)">
                <g id="Off12" serif:id="Off" transform="matrix(1,0,0,1,67.347,0.816345)">
                    <g>
                        <g transform="matrix(-1,-1.22465e-16,1.22465e-16,-1,443.082,496.992)">
                            <path d="M221.541,-18.008C221.541,-18.008 296.157,131.225 357.475,253.861C374.411,287.732 372.601,327.957 352.692,360.171C332.783,392.384 297.614,411.992 259.745,411.992L190.996,411.992C151.486,411.992 114.794,391.535 94.022,357.926C73.251,324.317 71.362,282.35 89.032,247.011C149.667,125.741 221.541,-18.008 221.541,-18.008Z" style="fill:rgb(147,147,147);"/>
                        </g>
                        <g transform="matrix(1,0,0,1,-34,-50)">
                            <circle cx="255.541" cy="246.992" r="146" style="fill:rgb(147,147,147);"/>
                        </g>
                    </g>
                </g>
                <g id="off12" serif:id="off">
                    <g transform="matrix(0.108285,0.835915,-0.579443,0.0750612,566.76,-8.58311)">
                        <rect x="187.843" y="571.765" width="281.569" height="15.686" style="fill:rgb(101,101,101);"/>
                    </g>
                    <g transform="matrix(-0.108285,0.835915,0.579443,0.0750612,13.2312,-8.58311)">
                        <rect x="187.843" y="571.765" width="281.569" height="15.686" style="fill:rgb(101,101,101);"/>
                    </g>
                </g>
                <g transform="matrix(1,0,0,1,67.347,0.816345)">
                    <path d="M276.541,439.492C276.541,424.315 264.219,411.992 249.041,411.992L194.041,411.992C178.863,411.992 166.541,424.315 166.541,439.492L166.541,494.492C166.541,509.67 178.863,521.992 194.041,521.992L249.041,521.992C264.219,521.992 276.541,509.67 276.541,494.492L276.541,439.492Z" style="fill:rgb(89,89,89);"/>
                </g>
            </g>
        </g>
        <g id="LightOff13" serif:id="LightOff" transform="matrix(0.123381,0,0,0.111635,154.081,291.278)">
            <g transform="matrix(1,0,0,1,-300,-300)">
                <g id="Off13" serif:id="Off" transform="matrix(1,0,0,1,67.347,0.816345)">
                    <g>
                        <g transform="matrix(-1,-1.22465e-16,1.22465e-16,-1,443.082,496.992)">
                            <path d="M221.541,-18.008C221.541,-18.008 296.157,131.225 357.475,253.861C374.411,287.732 372.601,327.957 352.692,360.171C332.783,392.384 297.614,411.992 259.745,411.992L190.996,411.992C151.486,411.992 114.794,391.535 94.022,357.926C73.251,324.317 71.362,282.35 89.032,247.011C149.667,125.741 221.541,-18.008 221.541,-18.008Z" style="fill:rgb(147,147,147);"/>
                        </g>
                        <g transform="matrix(1,0,0,1,-34,-50)">
                            <circle cx="255.541" cy="246.992" r="146" style="fill:rgb(147,147,147);"/>
                        </g>
                    </g>
                </g>
                <g id="off13" serif:id="off">
                    <g transform="matrix(0.108285,0.835915,-0.579443,0.0750612,566.76,-8.58311)">
                        <rect x="187.843" y="571.765" width="281.569" height="15.686" style="fill:rgb(101,101,101);"/>
                    </g>
                    <g transform="matrix(-0.108285,0.835915,0.579443,0.0750612,13.2312,-8.58311)">
                        <rect x="187.843" y="571.765" width="281.569" height="15.686" style="fill:rgb(101,101,101);"/>
                    </g>
                </g>
                <g transform="matrix(1,0,0,1,67.347,0.816345)">
                    <path d="M276.541,439.492C276.541,424.315 264.219,411.992 249.041,411.992L194.041,411.992C178.863,411.992 166.541,424.315 166.541,439.492L166.541,494.492C166.541,509.67 178.863,521.992 194.041,521.992L249.041,521.992C264.219,521.992 276.541,509.67 276.541,494.492L276.541,439.492Z" style="fill:rgb(89,89,89);"/>
                </g>
            </g>
        </g>
    </g>
    <g id="Outer" transform="matrix(0.974897,0,0,0.969995,13.5023,-118.447)">
        <path d="M205.147,257.825L0,257.825L0,600L294.766,600" style="fill:none;stroke:black;stroke-width:10.28px;stroke-linecap:butt;stroke-linejoin:round;"/>
        <g transform="matrix(1.02575,0,0,1.03093,-13.85,-11.3953)">
            <path d="M300.869,593.05L553.908,593.05" style="fill:none;stroke:black;stroke-width:10px;stroke-linecap:butt;stroke-linejoin:round;"/>
        </g>
        <g transform="matrix(1.02575,0,0,1.03093,-13.85,-11.3953)">
            <path d="M300.869,143.714L553.908,143.714" style="fill:none;stroke:black;stroke-width:10px;stroke-linecap:butt;stroke-linejoin:round;"/>
        </g>
        <g transform="matrix(1.02575,0,0,1.03093,-13.85,-11.3953)">
            <path d="M303.835,261.142L303.835,593.05" style="fill:none;stroke:black;stroke-width:10px;stroke-linecap:butt;stroke-linejoin:round;"/>
        </g>
        <g transform="matrix(1.02575,0,0,1.03093,-13.85,39.1205)">
            <path d="M890.909,544.05L890.909,94.714" style="fill:none;stroke:black;stroke-width:10px;stroke-linecap:butt;stroke-linejoin:round;"/>
        </g>
    </g>
    <g id="Rooms" transform="matrix(0.842505,0,0,0.748893,48.8569,14.2144)">
        <g id="BTH-2" serif:id="BTH 2" transform="matrix(-0.521429,0,0,0.552227,1016.61,-204.305)">
            <rect x="602.12" y="369.965" width="197.88" height="230.035" style="fill:rgb(235,235,235);fill-opacity:0;stroke:black;stroke-width:24.86px;stroke-linecap:butt;stroke-linejoin:round;"/>
        </g>
        <g id="BTH-1" serif:id="BTH 1" transform="matrix(-0.521429,0,0,0.552227,1016.61,-77.2728)">
            <rect x="602.12" y="369.965" width="197.88" height="230.035" style="fill:rgb(235,235,235);fill-opacity:0;stroke:black;stroke-width:24.86px;stroke-linecap:butt;stroke-linejoin:round;"/>
        </g>
        <g id="MBR-1" serif:id="MBR 1" transform="matrix(1.5,0,0,1.10445,-200.537,-408.609)">
            <rect x="602.12" y="369.965" width="197.88" height="230.035" style="fill:rgb(235,235,235);fill-opacity:0;stroke:black;stroke-width:9.93px;stroke-linecap:butt;stroke-linejoin:round;"/>
        </g>
        <g id="BR-2" serif:id="BR 2" transform="matrix(1.02143,0,0,1,-15.5594,4.26326e-13)">
            <rect x="602.12" y="369.965" width="197.88" height="230.035" style="fill:rgb(235,235,235);fill-opacity:0;stroke:black;stroke-width:13.15px;stroke-linecap:butt;stroke-linejoin:round;"/>
        </g>
        <g id="Kitchen-Living" serif:id="Kitchen Living">
            <g transform="matrix(1.18694,0,0,1.3353,-57.9901,-191.902)">
                <path d="M553.908,334.743L553.908,375.551L303.835,375.551" style="fill:none;stroke:black;stroke-width:10px;stroke-linecap:butt;stroke-linejoin:round;stroke-dasharray:10,10;"/>
            </g>
            <g transform="matrix(1.18694,0,0,1.3353,-57.9901,-191.902)">
                <path d="M553.908,420.778L553.908,375.551" style="fill:none;stroke:black;stroke-width:10px;stroke-linecap:butt;stroke-linejoin:round;stroke-dasharray:10,10;"/>
            </g>
            <g transform="matrix(1.18694,0,0,1.3353,-57.9901,-191.902)">
                <path d="M303.835,261.142L303.835,143.714" style="fill:none;stroke:black;stroke-width:10px;stroke-linecap:butt;stroke-linejoin:round;stroke-dasharray:10,10;"/>
            </g>
        </g>
        <g id="BR-1" serif:id="BR 1" transform="matrix(1,0,0,1,199.463,4.54747e-13)">
            <rect x="602.12" y="369.965" width="197.88" height="230.035" style="fill:rgb(235,235,235);fill-opacity:0;stroke:black;stroke-width:13.31px;stroke-linecap:butt;stroke-linejoin:round;"/>
        </g>
        <g id="Laundry" transform="matrix(1.18694,0,0,1.3353,-57.9901,-191.902)">
            <path d="M303.835,261.142L208.456,261.142L209.559,143.714L303.835,143.714" style="fill:none;stroke:black;stroke-width:10px;stroke-linecap:butt;stroke-linejoin:round;"/>
        </g>
        <g transform="matrix(1.18694,0,0,1.3353,343.921,-13.8833)">
            <text x="369.184px" y="113.98px" style="font-family:'ArialMT', 'Arial', sans-serif;font-size:24px;">Master BR</text>
        </g>
        <g transform="matrix(1.18694,0,0,1.3353,216.876,347.683)">
            <text x="369.184px" y="113.98px" style="font-family:'ArialMT', 'Arial', sans-serif;font-size:24px;">Kid BR 1</text>
        </g>
        <g transform="matrix(1.18694,0,0,1.3353,412.642,347.683)">
            <text x="369.184px" y="113.98px" style="font-family:'ArialMT', 'Arial', sans-serif;font-size:24px;">Kid BR 2</text>
        </g>
        <g transform="matrix(1.18694,0,0,1.3353,172.235,-77.3992)">
            <text x="369.184px" y="113.98px" style="font-family:'ArialMT', 'Arial', sans-serif;font-size:24px;">Bath 1</text>
        </g>
        <g transform="matrix(1.18694,0,0,1.3353,171.22,55.8237)">
            <text x="369.184px" y="113.98px" style="font-family:'ArialMT', 'Arial', sans-serif;font-size:24px;">Bath 2</text>
        </g>
    </g>
    <g id="Windows" transform="matrix(1,0,0,1,0,-129.5)">
        <g transform="matrix(1,0,0,1,1.78424,-215.373)">
            <rect x="574.632" y="353.493" width="41.912" height="9.926" style="fill:white;stroke:black;stroke-width:3.2px;stroke-linecap:butt;stroke-linejoin:round;"/>
        </g>
        <g transform="matrix(1,0,0,1,115.579,-215.373)">
            <rect x="574.632" y="353.493" width="41.912" height="9.926" style="fill:white;stroke:black;stroke-width:3.2px;stroke-linecap:butt;stroke-linejoin:round;"/>
        </g>
        <g transform="matrix(1,0,0,1,229.374,-215.373)">
            <rect x="574.632" y="353.493" width="41.912" height="9.926" style="fill:white;stroke:black;stroke-width:3.2px;stroke-linecap:butt;stroke-linejoin:round;"/>
        </g>
        <g transform="matrix(1,0,0,1,243.271,234.594)">
            <rect x="574.632" y="353.493" width="41.912" height="9.926" style="fill:white;stroke:black;stroke-width:3.2px;stroke-linecap:butt;stroke-linejoin:round;"/>
        </g>
        <g transform="matrix(1,0,0,1,75.3379,234.594)">
            <rect x="574.632" y="353.493" width="41.912" height="9.926" style="fill:white;stroke:black;stroke-width:3.2px;stroke-linecap:butt;stroke-linejoin:round;"/>
        </g>
        <g transform="matrix(1,0,0,1,-196.713,234.594)">
            <rect x="574.632" y="353.493" width="41.912" height="9.926" style="fill:white;stroke:black;stroke-width:3.2px;stroke-linecap:butt;stroke-linejoin:round;"/>
        </g>
        <g transform="matrix(1,0,0,1,-76.7133,234.594)">
            <rect x="574.632" y="353.493" width="41.912" height="9.926" style="fill:white;stroke:black;stroke-width:3.2px;stroke-linecap:butt;stroke-linejoin:round;"/>
        </g>
        <g transform="matrix(1,0,0,1,-182.596,-214.741)">
            <rect x="574.632" y="353.493" width="41.912" height="9.926" style="fill:white;stroke:black;stroke-width:3.2px;stroke-linecap:butt;stroke-linejoin:round;"/>
        </g>
        <g transform="matrix(1,0,0,1,179.521,234.594)">
            <rect x="574.632" y="353.493" width="41.912" height="9.926" style="fill:white;stroke:black;stroke-width:3.2px;stroke-linecap:butt;stroke-linejoin:round;"/>
        </g>
        <g transform="matrix(1,0,0,1,11.5879,234.594)">
            <rect x="574.632" y="353.493" width="41.912" height="9.926" style="fill:white;stroke:black;stroke-width:3.2px;stroke-linecap:butt;stroke-linejoin:round;"/>
        </g>
        <g transform="matrix(1,0,0,1,-94.2944,-214.741)">
            <rect x="574.632" y="353.493" width="41.912" height="9.926" style="fill:white;stroke:black;stroke-width:3.2px;stroke-linecap:butt;stroke-linejoin:round;"/>
        </g>
        <g transform="matrix(1,0,0,1,-256.051,233.638)">
            <rect x="574.632" y="353.493" width="41.912" height="9.926" style="fill:white;stroke:black;stroke-width:3.2px;stroke-linecap:butt;stroke-linejoin:round;"/>
        </g>
    </g>
    <g id="Doors" transform="matrix(1,0,0,1,0,-129.5)">
        <g id="Door" transform="matrix(1,0,0,1,64.4208,252.121)">
            <rect x="511.996" y="77.757" width="41.912" height="8.824" style="stroke:white;stroke-width:4px;stroke-linecap:butt;stroke-linejoin:round;"/>
            <g transform="matrix(0.840591,0.225236,-0.258819,0.965926,105.74,-112.793)">
                <path d="M511.996,86.581L553.908,86.581" style="fill:none;stroke:rgb(6,0,0);stroke-width:3.41px;stroke-linecap:butt;stroke-linejoin:round;"/>
            </g>
        </g>
        <g id="Door1" serif:id="Door" transform="matrix(1,0,0,1,-76.5636,509.373)">
            <rect x="511.996" y="77.757" width="41.912" height="8.824" style="stroke:white;stroke-width:4px;stroke-linecap:butt;stroke-linejoin:round;"/>
            <g transform="matrix(0.840591,0.225236,-0.258819,0.965926,105.74,-112.793)">
                <path d="M511.996,86.581L553.908,86.581" style="fill:none;stroke:rgb(6,0,0);stroke-width:3.41px;stroke-linecap:butt;stroke-linejoin:round;"/>
            </g>
        </g>
        <g id="Door2" serif:id="Door" transform="matrix(1,0,0,1,235.296,251.121)">
            <rect x="511.996" y="77.757" width="41.912" height="8.824" style="stroke:white;stroke-width:4px;stroke-linecap:butt;stroke-linejoin:round;"/>
            <g transform="matrix(0.840591,0.225236,-0.258819,0.965926,105.74,-112.793)">
                <path d="M511.996,86.581L553.908,86.581" style="fill:none;stroke:rgb(6,0,0);stroke-width:3.41px;stroke-linecap:butt;stroke-linejoin:round;"/>
            </g>
        </g>
        <g id="Door3" serif:id="Door" transform="matrix(-1,1.22465e-16,-1.22465e-16,-1,1340.5,502.456)">
            <rect x="511.996" y="77.757" width="41.912" height="8.824" style="stroke:white;stroke-width:4px;stroke-linecap:butt;stroke-linejoin:round;"/>
            <g transform="matrix(0.840591,0.225236,-0.258819,0.965926,105.74,-112.793)">
                <path d="M511.996,86.581L553.908,86.581" style="fill:none;stroke:rgb(6,0,0);stroke-width:3.41px;stroke-linecap:butt;stroke-linejoin:round;"/>
            </g>
        </g>
        <g id="Door4" serif:id="Door" transform="matrix(-1,1.22465e-16,-1.22465e-16,-1,872.935,225.803)">
            <rect x="511.996" y="77.757" width="41.912" height="8.824" style="stroke:white;stroke-width:4px;stroke-linecap:butt;stroke-linejoin:round;"/>
            <g transform="matrix(0.840591,0.225236,-0.258819,0.965926,105.74,-112.793)">
                <path d="M511.996,86.581L553.908,86.581" style="fill:none;stroke:rgb(6,0,0);stroke-width:3.41px;stroke-linecap:butt;stroke-linejoin:round;"/>
            </g>
        </g>
        <g id="Door5" serif:id="Door" transform="matrix(-1,1.22465e-16,-1.22465e-16,-1,1172,502.456)">
            <rect x="511.996" y="77.757" width="41.912" height="8.824" style="stroke:white;stroke-width:4px;stroke-linecap:butt;stroke-linejoin:round;"/>
            <g transform="matrix(0.840591,0.225236,-0.258819,0.965926,105.74,-112.793)">
                <path d="M511.996,86.581L553.908,86.581" style="fill:none;stroke:rgb(6,0,0);stroke-width:3.41px;stroke-linecap:butt;stroke-linejoin:round;"/>
            </g>
        </g>
        <g id="Door6" serif:id="Door" transform="matrix(6.12323e-17,-1,1,6.12323e-17,558.294,724.965)">
            <rect x="511.996" y="77.757" width="41.912" height="8.824" style="stroke:white;stroke-width:4px;stroke-linecap:butt;stroke-linejoin:round;"/>
            <g transform="matrix(0.840591,0.225236,-0.258819,0.965926,105.74,-112.793)">
                <path d="M511.996,86.581L553.908,86.581" style="fill:none;stroke:rgb(6,0,0);stroke-width:3.41px;stroke-linecap:butt;stroke-linejoin:round;"/>
            </g>
        </g>
        <g id="Door7" serif:id="Door" transform="matrix(6.12323e-17,-1,1,6.12323e-17,222.078,850.698)">
            <rect x="511.996" y="77.757" width="41.912" height="8.824" style="stroke:white;stroke-width:4px;stroke-linecap:butt;stroke-linejoin:round;"/>
            <g transform="matrix(0.840591,0.225236,-0.258819,0.965926,105.74,-112.793)">
                <path d="M511.996,86.581L553.908,86.581" style="fill:none;stroke:rgb(6,0,0);stroke-width:3.41px;stroke-linecap:butt;stroke-linejoin:round;"/>
            </g>
        </g>
    </g>
    <g id="Names">
        <g transform="matrix(1,0,0,1,19.2857,28.4694)">
            <text x="369.184px" y="113.98px" style="font-family:'ArialMT', 'Arial', sans-serif;font-size:24px;">Kitchen</text>
        </g>
        <g transform="matrix(1,0,0,1,-257.143,181.837)">
            <text x="369.184px" y="113.98px" style="font-family:'ArialMT', 'Arial', sans-serif;font-size:24px;">Garage</text>
        </g>
        <g transform="matrix(1,0,0,1,-7.43891,244.265)">
            <text x="369.184px" y="113.98px" style="font-family:'ArialMT', 'Arial', sans-serif;font-size:24px;">Living Room</text>
        </g>
    </g>
</svg>
