<?xml version="1.0" encoding="UTF-8" standalone="no"?>
<!DOCTYPE svg PUBLIC "-//W3C//DTD SVG 1.1//EN" "http://www.w3.org/Graphics/SVG/1.1/DTD/svg11.dtd">
<svg width="100%" height="100%" viewBox="0 0 600 600" version="1.1" xmlns="http://www.w3.org/2000/svg" xmlns:xlink="http://www.w3.org/1999/xlink" xml:space="preserve" xmlns:serif="http://www.serif.com/" style="fill-rule:evenodd;clip-rule:evenodd;stroke-linejoin:round;stroke-miterlimit:2;">
    <g id="Off" transform="matrix(1,0,0,1,67.347,0.816345)">
        <g>
            <g transform="matrix(-1,-1.22465e-16,1.22465e-16,-1,443.082,496.992)">
                <path d="M221.541,-18.008C221.541,-18.008 296.157,131.225 357.475,253.861C374.411,287.732 372.601,327.957 352.692,360.171C332.783,392.384 297.614,411.992 259.745,411.992L190.996,411.992C151.486,411.992 114.794,391.535 94.022,357.926C73.251,324.317 71.362,282.35 89.032,247.011C149.667,125.741 221.541,-18.008 221.541,-18.008Z" style="fill:rgb(147,147,147);"/>
            </g>
            <g transform="matrix(1,0,0,1,-34,-50)">
                <circle cx="255.541" cy="246.992" r="146" style="fill:rgb(147,147,147);"/>
            </g>
        </g>
    </g>
    <g id="off">
        <g transform="matrix(0.108285,0.835915,-0.579443,0.0750612,566.76,-8.58311)">
            <rect x="187.843" y="571.765" width="281.569" height="15.686" style="fill:rgb(101,101,101);"/>
        </g>
        <g transform="matrix(-0.108285,0.835915,0.579443,0.0750612,13.2312,-8.58311)">
            <rect x="187.843" y="571.765" width="281.569" height="15.686" style="fill:rgb(101,101,101);"/>
        </g>
    </g>
    <g transform="matrix(1,0,0,1,67.347,0.816345)">
        <path d="M276.541,439.492C276.541,424.315 264.219,411.992 249.041,411.992L194.041,411.992C178.863,411.992 166.541,424.315 166.541,439.492L166.541,494.492C166.541,509.67 178.863,521.992 194.041,521.992L249.041,521.992C264.219,521.992 276.541,509.67 276.541,494.492L276.541,439.492Z" style="fill:rgb(89,89,89);"/>
    </g>
</svg>
